PathFileType	4	(X/Y/Z)	/Users/itak/Documents/Research/Walk-IL/dataset/trc/00218_00009.trc
DataRate	CameraRate	NumFrames	NumMarkers	Units	OrigDataRate	OrigDataStartFrame	OrigNumFrames
100.000000	100.000000	4	53	mm	100.000000	63	510
Frame#	Time	RPSI			LPSI			L3			STRN			T10			C7			CLAV			RBAK			LBAK			LSHO			LUPA			LAEL			LAOL			LWTS			LWPS			LFRA			LIFD			LHPS			LHTS			RSHO			RUPA			RAEL			RAOL			RWTS			RWPS			RFRA			RIFD			RHTS			RHPS			RBHD			LFHD			RFHD			LBHD			LHIP			RHIP			RASI			LASI			LKNE			LTHI			LANK			LTIP			LTOE			LMT1			LMT5			LHEE			RKNE			RANK			RTIP			RTOE			RMT1			RMT5			RHEE			RTHI			
		X1	Y1	Z1	X2	Y2	Z2	X3	Y3	Z3	X4	Y4	Z4	X5	Y5	Z5	X6	Y6	Z6	X7	Y7	Z7	X8	Y8	Z8	X9	Y9	Z9	X10	Y10	Z10	X11	Y11	Z11	X12	Y12	Z12	X13	Y13	Z13	X14	Y14	Z14	X15	Y15	Z15	X16	Y16	Z16	X17	Y17	Z17	X18	Y18	Z18	X19	Y19	Z19	X20	Y20	Z20	X21	Y21	Z21	X22	Y22	Z22	X23	Y23	Z23	X24	Y24	Z24	X25	Y25	Z25	X26	Y26	Z26	X27	Y27	Z27	X28	Y28	Z28	X29	Y29	Z29	X30	Y30	Z30	X31	Y31	Z31	X32	Y32	Z32	X33	Y33	Z33	X34	Y34	Z34	X35	Y35	Z35	X36	Y36	Z36	X37	Y37	Z37	X38	Y38	Z38	X39	Y39	Z39	X40	Y40	Z40	X41	Y41	Z41	X42	Y42	Z42	X43	Y43	Z43	X44	Y44	Z44	X45	Y45	Z45	X46	Y46	Z46	X47	Y47	Z47	X48	Y48	Z48	X49	Y49	Z49	X50	Y50	Z50	X51	Y51	Z51	X52	Y52	Z52	X53	Y53	Z53	

64	0.63	-1146.740234375	1046.336181640625	-235.9788208007812	-1153.191772460938	1050.22705078125	-116.1501770019531	-1140.596435546875	1130.854736328125	-162.0464782714844	-1376.981811523438	1318.960327148438	-163.0742034912109	-1123.113403320312	1257.070922851562	-169.1979522705078	-1183.046142578125	1519.8740234375	-166.6795196533203	-1348.421630859375	1436.33544921875	-164.0165100097656	-1106.703369140625	1381.318359375	-241.6860656738281	-1163.1015625	1480.043334960938	-54.6735725402832	-1252.878662109375	1482.052978515625	2.449902534484863	-1229.195678710938	1361.982055664062	81.46534729003906	-1256.630126953125	1150.559326171875	104.8331146240234	-1182.300170898438	1131.994262695312	62.03932189941406	-1351.82373046875	920.1642456054688	39.73644256591797	-1330.936279296875	901.30859375	119.2578964233398	-1284.094970703125	1043.884887695312	115.730110168457	-1361.9619140625	724.5911865234375	44.99114227294922	-1349.399047851562	813.2372436523438	113.0416870117188	-1389.43603515625	818.9823608398438	58.1540641784668	-1243.830810546875	1477.780151367188	-334.255859375	-1227.001586914062	1412.064819335938	-401.28076171875	-1222.287841796875	1130.655029296875	-440.7085571289062	-1178.21337890625	1121.888061523438	-356.4197387695312	-1359.566650390625	920.3681640625	-385.5363159179688	-1313.804931640625	905.4243774414062	-454.6683349609375	-1251.76123046875	1062.832275390625	-449.9017028808594	-1374.894409179688	727.269775390625	-378.9894104003906	-1401.424560546875	799.7243041992188	-397.0338439941406	-1353.96240234375	799.035888671875	-452.15625	-1219.06982421875	1668.958618164062	-226.3991546630859	-1405.516967773438	1731.562744140625	-110.4813079833984	-1416.546142578125	1728.744506835938	-209.6846771240234	-1248.530151367188	1682.689331054688	-90.10411834716797	-1259.068481445312	991.0997314453125	20.31179618835449	-1243.40673828125	1009.278076171875	-344.9777221679688	-1339.075561523438	1054.7216796875	-312.373779296875	-1356.63037109375	1036.542602539062	-31.45328330993652	-1288.305786132812	507.6264343261719	-34.10901641845703	-1290.907348632812	650.9937133789062	1.030160307884216	-1175.8681640625	42.35525131225586	-50.53634643554688	-1225.849609375	286.3608093261719	-30.93575286865234	-1391.32568359375	45.73154449462891	-107.1272506713867	-1322.372680664062	40.55361938476562	-150.4160308837891	-1304.37109375	40.28266143798828	-33.17620849609375	-1113.614501953125	50.02864456176758	-102.5816421508789	-1273.103515625	517.2141723632812	-305.7264404296875	-1173.817016601562	40.20922088623047	-275.7557067871094	-1271.948852539062	400.4685974121094	-287.6709899902344	-1388.56005859375	47.28988265991211	-248.6384429931641	-1335.61962890625	45.84514617919922	-201.6623382568359	-1281.11865234375	39.03943252563477	-310.0838317871094	-1115.75	42.02513885498047	-212.2293395996094	nan	nan	nan	
65	0.64	-1146.747924804688	1046.349243164062	-236.0540618896484	-1153.23779296875	1050.245971679688	-116.2289276123047	-1140.651733398438	1130.864379882812	-162.1235198974609	-1377.022827148438	1318.966552734375	-163.1819305419922	-1123.201538085938	1257.101196289062	-169.3202056884766	-1183.089965820312	1519.90234375	-166.8221282958984	-1348.468505859375	1436.349731445312	-164.1341247558594	-1106.679809570312	1381.332763671875	-241.7801361083984	-1163.157836914062	1480.093994140625	-54.79343032836914	-1252.9375	1482.089965820312	2.332807779312134	-1229.194213867188	1362.014526367188	81.41840362548828	-1256.652954101562	1150.587158203125	104.7746505737305	-1182.351684570312	1132.041259765625	61.97441864013672	-1351.848876953125	920.1882934570312	39.69155502319336	-1330.962036132812	901.3432006835938	119.2036819458008	-1284.17626953125	1043.927001953125	115.6606826782227	-1361.985473632812	724.6213989257812	44.95427703857422	-1349.496215820312	813.2939453125	112.93798828125	-1389.489990234375	819.0087280273438	58.08623123168945	-1243.875854492188	1477.798095703125	-334.3489990234375	-1227.031982421875	1412.079711914062	-401.3751220703125	-1222.385498046875	1130.664306640625	-440.8515930175781	-1178.271362304688	1121.901733398438	-356.5154113769531	-1359.599731445312	920.3678588867188	-385.6766967773438	-1313.909545898438	905.44873046875	-454.8415222167969	-1251.819580078125	1062.876953125	-450.089599609375	-1374.908935546875	727.2697143554688	-379.1449279785156	-1401.513916015625	799.7405395507812	-397.2156677246094	-1354.072143554688	799.0623779296875	-452.3501281738281	-1219.117919921875	1668.963012695312	-226.5633850097656	-1405.57861328125	1731.572998046875	-110.5905227661133	-1416.557861328125	1728.70068359375	-209.8702697753906	-1248.623779296875	1682.68115234375	-90.25843811035156	-1259.12646484375	991.1294555664062	20.24877738952637	-1243.422241210938	1009.269592285156	-345.0516662597656	-1339.082763671875	1054.709106445312	-312.4461059570312	-1356.671875	1036.552001953125	-31.53450202941895	-1288.3359375	507.632568359375	-34.11201477050781	-1290.943115234375	651.0131225585938	0.9808779954910278	-1175.884643554688	42.35703277587891	-50.55359268188477	-1225.87744140625	286.3761901855469	-30.95187759399414	-1391.34423828125	45.71828842163086	-107.0853652954102	-1322.374877929688	40.55722427368164	-150.4177398681641	-1304.37255859375	40.27136611938477	-33.16298675537109	-1113.621337890625	50.04865264892578	-102.57568359375	-1273.148315429688	517.1901245117188	-305.7520446777344	-1173.82177734375	40.21115875244141	-275.7532043457031	-1272.012817382812	400.4478454589844	-287.6880187988281	-1388.56103515625	47.29357528686523	-248.6376800537109	-1335.620483398438	45.84526062011719	-201.6622772216797	-1281.120849609375	39.0402717590332	-310.0828857421875	-1115.7724609375	42.02366256713867	-212.2440795898438	nan	nan	nan	
66	0.65	-1146.74951171875	1046.363403320312	-236.1443023681641	-1153.275512695312	1050.2646484375	-116.3132476806641	-1140.698852539062	1130.876342773438	-162.2042846679688	-1377.057861328125	1318.97607421875	-163.2883758544922	-1123.29443359375	1257.13037109375	-169.4454040527344	-1183.13037109375	1519.933227539062	-166.9663696289062	-1348.517211914062	1436.366943359375	-164.2561340332031	-1106.6552734375	1381.345825195312	-241.8792266845703	-1163.21484375	1480.147094726562	-54.91695785522461	-1252.996704101562	1482.128662109375	2.214380264282227	-1229.19482421875	1362.04931640625	81.36577606201172	-1256.676025390625	1150.616943359375	104.7106552124023	-1182.405639648438	1132.090209960938	61.90848541259766	-1351.877807617188	920.2219848632812	39.62937927246094	-1330.981201171875	901.3760986328125	119.1527252197266	-1284.264038085938	1043.974487304688	115.5857696533203	-1362.0126953125	724.6580810546875	44.91026306152344	-1349.591064453125	813.3399658203125	112.8303070068359	-1389.542724609375	819.0379638671875	58.01194381713867	-1243.913452148438	1477.8193359375	-334.4441528320312	-1227.051025390625	1412.09912109375	-401.4710083007812	-1222.471435546875	1130.674926757812	-440.989013671875	-1178.324462890625	1121.9140625	-356.6065063476562	-1359.63134765625	920.3719482421875	-385.8130493164062	-1314.01513671875	905.4744873046875	-455.0122985839844	-1251.873291015625	1062.931884765625	-450.2893371582031	-1374.928344726562	727.2719116210938	-379.2957153320312	-1401.610229492188	799.760009765625	-397.3955383300781	-1354.1796875	799.0891723632812	-452.5401916503906	-1219.160766601562	1668.969360351562	-226.7376098632812	-1405.650634765625	1731.586791992188	-110.7083358764648	-1416.562255859375	1728.649658203125	-210.0867919921875	-1248.728393554688	1682.675537109375	-90.41798400878906	-1259.186157226562	991.1549682617188	20.18014144897461	-1243.43798828125	1009.260803222656	-345.1298217773438	-1339.081665039062	1054.69873046875	-312.5156860351562	-1356.701293945312	1036.5654296875	-31.61453056335449	-1288.3701171875	507.6411743164062	-34.11580276489258	-1290.97119140625	651.03466796875	0.9327531456947327	-1175.904418945312	42.35720443725586	-50.57133483886719	-1225.907592773438	286.3935546875	-30.96851921081543	-1391.364990234375	45.7005500793457	-107.03369140625	-1322.37548828125	40.56228256225586	-150.4223785400391	-1304.372436523438	40.25616073608398	-33.1464729309082	-1113.630004882812	50.07072830200195	-102.568489074707	-1273.19873046875	517.1669311523438	-305.7789306640625	-1173.826049804688	40.21404647827148	-275.7521667480469	-1272.0859375	400.4312438964844	-287.7069702148438	-1388.5634765625	47.2989616394043	-248.6367645263672	-1335.622924804688	45.84597015380859	-201.6627655029297	-1281.12353515625	39.0414924621582	-310.0825500488281	-1115.806884765625	42.01779937744141	-212.2699127197266	nan	nan	nan	
67	0.66	-1146.743286132812	1046.380249023438	-236.2512817382812	-1153.30322265625	1050.28466796875	-116.404411315918	-1140.736572265625	1130.892456054688	-162.2901611328125	-1377.08642578125	1318.98876953125	-163.3944091796875	-1123.3955078125	1257.157836914062	-169.5746917724609	-1183.166137695312	1519.966186523438	-167.1110076904297	-1348.568359375	1436.38671875	-164.3831481933594	-1106.63330078125	1381.357055664062	-241.98291015625	-1163.273071289062	1480.201904296875	-55.04373168945312	-1253.056030273438	1482.168701171875	2.094330787658691	-1229.196655273438	1362.0859375	81.30568695068359	-1256.701904296875	1150.64794921875	104.6402435302734	-1182.461181640625	1132.140502929688	61.84218215942383	-1351.910888671875	920.2660522460938	39.54732513427734	-1330.99462890625	901.4068603515625	119.1048889160156	-1284.3583984375	1044.028076171875	115.5055084228516	-1362.042846679688	724.7012939453125	44.859130859375	-1349.678955078125	813.3753051757812	112.7192993164062	-1389.593627929688	819.0699462890625	57.93116760253906	-1243.9443359375	1477.84326171875	-334.5429992675781	-1227.058959960938	1412.123168945312	-401.5695190429688	-1222.543579101562	1130.688110351562	-441.1219177246094	-1178.373779296875	1121.924438476562	-356.6954040527344	-1359.661743164062	920.3815307617188	-385.945068359375	-1314.119140625	905.5014038085938	-455.17822265625	-1251.9208984375	1062.997192382812	-450.4994201660156	-1374.956787109375	727.2769775390625	-379.4443359375	-1401.70751953125	799.7822265625	-397.5691833496094	-1354.278442382812	799.115966796875	-452.7209777832031	-1219.197387695312	1668.978271484375	-226.9213714599609	-1405.734008789062	1731.60205078125	-110.8365859985352	-1416.566284179688	1728.59326171875	-210.3307647705078	-1248.839599609375	1682.672607421875	-90.58241271972656	-1259.24267578125	991.1796875	20.10807418823242	-1243.452026367188	1009.251342773438	-345.2127075195312	-1339.072265625	1054.69091796875	-312.5829162597656	-1356.7177734375	1036.583374023438	-31.69403648376465	-1288.40771484375	507.6522521972656	-34.12048721313477	-1290.990600585938	651.0576782226562	0.8868035674095154	-1175.925537109375	42.35730361938477	-50.58757400512695	-1225.93896484375	286.4125366210938	-30.98541259765625	-1391.3876953125	45.67938613891602	-106.9772491455078	-1322.373779296875	40.56844711303711	-150.4294281005859	-1304.368774414062	40.2356071472168	-33.12549591064453	-1113.640258789062	50.09504699707031	-102.5594482421875	-1273.255615234375	517.1454467773438	-305.8074035644531	-1173.828979492188	40.21783065795898	-275.7525939941406	-1272.1669921875	400.4186706542969	-287.7285766601562	-1388.566650390625	47.30474090576172	-248.6358184814453	-1335.626098632812	45.84729385375977	-201.6637420654297	-1281.12646484375	39.04299926757812	-310.0826416015625	-1115.854736328125	42.00689697265625	-212.3093109130859	nan	nan	nan	
